<svg width="31" height="30" viewBox="0 0 31 30" fill="none" xmlns="http://www.w3.org/2000/svg">
<g id="phone">
<path id="Vector" d="M5.5 0C2.73858 0 0.5 2.23858 0.5 5V9C0.5 20.598 9.90202 30 21.5 30H25.5C28.2614 30 30.5 27.7614 30.5 25V22.2361C30.5 21.0998 29.858 20.061 28.8416 19.5528L24.0098 17.1369C22.3769 16.3204 20.3994 17.1395 19.8221 18.8715L19.2266 20.6581C19.0003 21.3369 18.3039 21.741 17.6023 21.6007C13.2106 20.7223 9.77769 17.2894 8.89935 12.8977C8.75902 12.1961 9.16312 11.4997 9.84195 11.2734L12.0592 10.5344C13.5464 10.0386 14.4012 8.4815 14.021 6.9607L12.8489 2.27239C12.515 0.936892 11.315 0 9.93845 0H5.5Z" fill="#B99674"/>
</g>
</svg>
